<?xml version="1.0" encoding="UTF-8" standalone="no"?>
<svg width="32px" height="36px" viewBox="0 0 32 36" version="1.1" xmlns="http://www.w3.org/2000/svg" xmlns:xlink="http://www.w3.org/1999/xlink" xmlns:sketch="http://www.bohemiancoding.com/sketch/ns">
    <!-- Generator: Sketch 3.4.4 (17249) - http://www.bohemiancoding.com/sketch -->
    <title>glass</title>
    <desc>Created with Sketch.</desc>
    <defs></defs>
    <g id="Page-1" stroke="none" stroke-width="1" fill="none" fill-rule="evenodd" sketch:type="MSPage">
        <g id="glass" sketch:type="MSLayerGroup" transform="translate(1.000000, 1.000000)" stroke="#CCC5CA" stroke-width="1.44" stroke-linecap="round" stroke-linejoin="round">
            <path d="M0.8946,0.5539 L12.4866,0.5539 L12.9866,17.1049 C13.0946,20.6829 10.1516,23.6169 6.6906,23.6169 L6.6906,23.6169 C3.2296,23.6169 0.2866,20.6849 0.3946,17.1049 L0.8946,0.5539 L0.8946,0.5539 Z" id="Stroke-7" sketch:type="MSShapeGroup"></path>
            <path d="M10.4026,10.7919 L10.6866,16.8579 C10.7426,18.0739 10.2046,19.1819 9.4296,19.9839 C8.6536,20.7859 7.5846,21.2839 6.4076,21.2839" id="Stroke-9" sketch:type="MSShapeGroup"></path>
            <path d="M12.6732,6.7692 L0.7092,6.7692" id="Stroke-11" sketch:type="MSShapeGroup"></path>
            <path d="M12.4237,34.28 L0.9557,34.28" id="Stroke-13" sketch:type="MSShapeGroup"></path>
            <path d="M6.6906,23.6169 L6.6906,33.8609" id="Stroke-16" sketch:type="MSShapeGroup"></path>
            <path d="M17.4963,0.5539 L29.0883,0.5539 L29.5883,17.1049 C29.6963,20.6829 26.7533,23.6169 23.2923,23.6169 L23.2923,23.6169 C19.8313,23.6169 16.8883,20.6849 16.9963,17.1049 L17.4963,0.5539 L17.4963,0.5539 Z" id="Stroke-18" sketch:type="MSShapeGroup"></path>
            <path d="M27.0042,10.7919 L27.2872,16.8579 C27.3442,18.0739 26.8062,19.1819 26.0312,19.9839 C25.2552,20.7859 24.1862,21.2839 23.0092,21.2839" id="Stroke-20" sketch:type="MSShapeGroup"></path>
            <path d="M29.2745,6.7692 L17.3105,6.7692" id="Stroke-22" sketch:type="MSShapeGroup"></path>
            <path d="M29.0254,34.28 L17.5574,34.28" id="Stroke-24" sketch:type="MSShapeGroup"></path>
            <path d="M23.2923,23.6169 L23.2923,33.8609" id="Stroke-27" sketch:type="MSShapeGroup"></path>
        </g>
    </g>
</svg>