<?xml version="1.0" encoding="UTF-8" standalone="no"?>
<svg width="19px" height="25px" viewBox="0 0 19 25" version="1.1" xmlns="http://www.w3.org/2000/svg" xmlns:xlink="http://www.w3.org/1999/xlink" xmlns:sketch="http://www.bohemiancoding.com/sketch/ns">
    <!-- Generator: Sketch 3.4.4 (17249) - http://www.bohemiancoding.com/sketch -->
    <title>pin</title>
    <desc>Created with Sketch.</desc>
    <defs></defs>
    <g id="Page-1" stroke="none" stroke-width="1" fill="none" fill-rule="evenodd" sketch:type="MSPage">
        <g id="pin" sketch:type="MSLayerGroup" fill="#11B161">
            <path d="M18.8013217,9.93 C18.8043217,9.778 18.8063217,9.57 18.8063217,9.47 C18.8063217,4.248 14.5883217,0 9.40332167,0 C4.21832167,0 0.000321669757,4.263 0.000321669757,9.502 C0.000321669757,9.619 0.00232166976,9.863 0.00632166976,10.005 C0.00632166976,10.008 0.00532166976,10.011 0.00532166976,10.014 C-0.00767833024,10.104 0.00332166976,10.194 0.0363216698,10.276 C0.28632167,12.924 1.97232167,14.783 3.60532167,16.583 L4.14132167,17.177 C5.88232167,19.126 8.93432167,24.653 8.96532167,24.709 C9.05332167,24.868 9.22132167,24.968 9.40332167,24.968 L9.40432167,24.968 C9.58732167,24.968 9.75432167,24.867 9.84232167,24.707 C9.87232167,24.652 12.9233217,19.077 14.6653217,17.127 L15.2733217,16.456 C16.8623217,14.713 18.5043217,12.913 18.7653217,10.328 C18.8043217,10.257 18.8263217,10.175 18.8263217,10.088 C18.8263217,10.032 18.8173217,9.98 18.8013217,9.93 L18.8013217,9.93 Z M17.8013217,9.886 C17.7963217,9.911 17.7933217,9.938 17.7913217,9.964 C17.6543217,12.361 16.1393217,14.023 14.5343217,15.781 L13.9193217,16.461 C12.4903217,18.062 10.3243217,21.803 9.40132167,23.443 C8.47732167,21.814 6.31432167,18.108 4.88732167,16.511 L4.34632167,15.911 C2.70432167,14.102 1.15332167,12.393 1.01432167,9.955 C1.01332167,9.928 1.00932167,9.903 1.00332167,9.877 C1.00132167,9.75 1.00032167,9.589 1.00032167,9.502 C1.00032167,4.815 4.76932167,1 9.40332167,1 C14.0373217,1 17.8063217,4.8 17.8063217,9.47 C17.8063217,9.561 17.8053217,9.746 17.8013217,9.886 L17.8013217,9.886 Z" id="Fill-10" sketch:type="MSShapeGroup"></path>
            <path d="M9.40332167,5.851 C7.48032167,5.851 5.91632167,7.415 5.91632167,9.338 C5.91632167,11.261 7.48032167,12.825 9.40332167,12.825 C11.3263217,12.825 12.8903217,11.261 12.8903217,9.338 C12.8903217,7.415 11.3263217,5.851 9.40332167,5.851 L9.40332167,5.851 Z M9.40332167,11.825 C8.03132167,11.825 6.91632167,10.709 6.91632167,9.338 C6.91632167,7.967 8.03132167,6.851 9.40332167,6.851 C10.7743217,6.851 11.8903217,7.967 11.8903217,9.338 C11.8903217,10.709 10.7743217,11.825 9.40332167,11.825 L9.40332167,11.825 Z" id="Fill-11" sketch:type="MSShapeGroup"></path>
        </g>
    </g>
</svg>